# xmcd
#
# Track frame offsets:
#	150
#	69162
#	126152
#	138325
#	230592
#
# Disc length: 3466 seconds
#
# Revision: 1
# Processed by: cddbd v1.5.1PL0 Copyright (c) Steve Scherf et al.
# Submitted via: CDex 1.50Beta5
#
DISCID=3f0d8805
DTITLE=さまざまなアーティスト - ファルコム・スペシャルBOX ’96
DYEAR=1900
DGENRE=
TTITLE0=第1話・幻の都と黄金伝説
TTITLE1=第2話・赤毛の剣士伝説
TTITLE2=藤澤道雄/LILIA〜WINTER VERSION
TTITLE3=第3話・ケフィン王国契約の腕輪
TTITLE4=jdk BAND/旅立ちの朝’95
EXTD=
EXTT0=
EXTT1=
EXTT2=
EXTT3=
EXTT4=
PLAYORDER=
